<svg width="760" height="520" viewBox="0 0 760 520" fill="none" xmlns="http://www.w3.org/2000/svg">
  <rect width="760" height="520" rx="36" fill="#F8F4FF"/>
  <rect x="48" y="48" width="664" height="424" rx="32" fill="white" stroke="#E8DDF7" stroke-width="2"/>
  <rect x="82" y="82" width="190" height="20" rx="10" fill="#21133F"/>
  <rect x="82" y="126" width="596" height="44" rx="18" fill="#21133F"/>
  <rect x="110" y="143" width="72" height="10" rx="5" fill="white"/>
  <rect x="255" y="143" width="72" height="10" rx="5" fill="white"/>
  <rect x="400" y="143" width="72" height="10" rx="5" fill="white"/>
  <rect x="545" y="143" width="72" height="10" rx="5" fill="white"/>
  <g fill="#FBF8FF" stroke="#E8DDF7">
    <rect x="82" y="190" width="596" height="44" rx="16"/>
    <rect x="82" y="250" width="596" height="44" rx="16"/>
    <rect x="82" y="310" width="596" height="44" rx="16"/>
    <rect x="82" y="370" width="596" height="44" rx="16"/>
  </g>
  <circle cx="604" cy="96" r="28" fill="#7C3AED"/>
</svg>
