<svg width="760" height="520" viewBox="0 0 760 520" fill="none" xmlns="http://www.w3.org/2000/svg">
  <rect width="760" height="520" rx="36" fill="#FBF8FF"/>
  <rect x="50" y="50" width="660" height="420" rx="30" fill="white" stroke="#E8DDF7" stroke-width="2"/>
  <rect x="82" y="82" width="210" height="20" rx="10" fill="#21133F"/>
  <rect x="82" y="126" width="596" height="48" rx="18" fill="#F8F4FF"/>
  <rect x="110" y="145" width="94" height="10" rx="5" fill="#7C3AED"/>
  <rect x="82" y="194" width="596" height="48" rx="18" fill="#F8F4FF"/>
  <rect x="110" y="213" width="130" height="10" rx="5" fill="#8B7CA6"/>
  <rect x="82" y="262" width="596" height="48" rx="18" fill="#F8F4FF"/>
  <rect x="110" y="281" width="108" height="10" rx="5" fill="#8B7CA6"/>
  <rect x="82" y="330" width="596" height="48" rx="18" fill="#F8F4FF"/>
  <rect x="110" y="349" width="150" height="10" rx="5" fill="#8B7CA6"/>
  <rect x="480" y="400" width="198" height="44" rx="16" fill="#21133F"/>
</svg>
