<svg width="900" height="520" viewBox="0 0 900 520" fill="none" xmlns="http://www.w3.org/2000/svg">
  <rect width="900" height="520" rx="34" fill="#F8F4FF"/>
  <rect x="42" y="38" width="816" height="444" rx="30" fill="white" stroke="#E8DDF7" stroke-width="2"/>
  <rect x="70" y="66" width="150" height="388" rx="24" fill="#21133F"/>
  <circle cx="103" cy="102" r="18" fill="#7C3AED"/>
  <rect x="130" y="91" width="62" height="10" rx="5" fill="white"/>
  <rect x="92" y="154" width="106" height="32" rx="12" fill="white"/>
  <rect x="92" y="204" width="106" height="32" rx="12" fill="#38205E"/>
  <rect x="92" y="254" width="106" height="32" rx="12" fill="#38205E"/>
  <rect x="92" y="304" width="106" height="32" rx="12" fill="#38205E"/>
  <rect x="250" y="70" width="560" height="60" rx="20" fill="#FBF8FF"/>
  <rect x="278" y="90" width="190" height="14" rx="7" fill="#21133F"/>
  <rect x="660" y="84" width="120" height="32" rx="12" fill="#7C3AED"/>
  <rect x="250" y="160" width="130" height="90" rx="20" fill="#FBF8FF" stroke="#E8DDF7"/>
  <rect x="405" y="160" width="130" height="90" rx="20" fill="#FBF8FF" stroke="#E8DDF7"/>
  <rect x="560" y="160" width="130" height="90" rx="20" fill="#FBF8FF" stroke="#E8DDF7"/>
  <rect x="715" y="160" width="95" height="90" rx="20" fill="#FBF8FF" stroke="#E8DDF7"/>
  <rect x="250" y="282" width="300" height="148" rx="24" fill="#FBF8FF" stroke="#E8DDF7"/>
  <rect x="580" y="282" width="230" height="148" rx="24" fill="#21133F"/>
  <rect x="276" y="310" width="140" height="12" rx="6" fill="#21133F"/>
  <rect x="276" y="346" width="230" height="20" rx="10" fill="white"/>
  <rect x="276" y="380" width="210" height="20" rx="10" fill="white"/>
  <rect x="610" y="310" width="120" height="12" rx="6" fill="white"/>
  <rect x="610" y="346" width="150" height="28" rx="14" fill="#7C3AED"/>
  <rect x="610" y="394" width="100" height="10" rx="5" fill="#A78BFA"/>
</svg>
