<svg width="1200" height="760" viewBox="0 0 1200 760" fill="none" xmlns="http://www.w3.org/2000/svg">
  <rect width="1200" height="760" rx="48" fill="#F8F4FF"/>
  <circle cx="1000" cy="90" r="170" fill="#E9D5FF"/>
  <circle cx="170" cy="640" r="210" fill="#EEF2FF"/>
  <rect x="74" y="70" width="1052" height="620" rx="36" fill="white" stroke="#E8DDF7" stroke-width="2"/>
  <rect x="100" y="98" width="214" height="564" rx="28" fill="#21133F"/>
  <circle cx="139" cy="143" r="22" fill="#7C3AED"/>
  <rect x="174" y="128" width="90" height="14" rx="7" fill="white"/>
  <rect x="174" y="151" width="58" height="9" rx="4.5" fill="#A78BFA"/>
  <rect x="124" y="214" width="166" height="44" rx="14" fill="white"/>
  <rect x="145" y="231" width="78" height="9" rx="4.5" fill="#21133F"/>
  <rect x="124" y="278" width="166" height="44" rx="14" fill="#342256"/>
  <rect x="145" y="295" width="96" height="9" rx="4.5" fill="#A78BFA"/>
  <rect x="124" y="342" width="166" height="44" rx="14" fill="#342256"/>
  <rect x="145" y="359" width="82" height="9" rx="4.5" fill="#A78BFA"/>
  <rect x="124" y="406" width="166" height="44" rx="14" fill="#342256"/>
  <rect x="145" y="423" width="94" height="9" rx="4.5" fill="#A78BFA"/>
  <rect x="124" y="530" width="166" height="88" rx="22" fill="#7C3AED"/>
  <rect x="145" y="554" width="92" height="10" rx="5" fill="white"/>
  <rect x="145" y="578" width="120" height="8" rx="4" fill="#DDD6FE"/>
  <rect x="350" y="110" width="704" height="72" rx="24" fill="#FBF8FF" stroke="#E8DDF7"/>
  <rect x="382" y="132" width="258" height="18" rx="9" fill="#21133F"/>
  <rect x="382" y="158" width="170" height="10" rx="5" fill="#8B7CA6"/>
  <rect x="856" y="126" width="166" height="40" rx="16" fill="#21133F"/>
  <rect x="390" y="224" width="190" height="132" rx="26" fill="#FBF8FF" stroke="#E8DDF7"/>
  <rect x="610" y="224" width="190" height="132" rx="26" fill="#FBF8FF" stroke="#E8DDF7"/>
  <rect x="830" y="224" width="190" height="132" rx="26" fill="#FBF8FF" stroke="#E8DDF7"/>
  <circle cx="426" cy="263" r="22" fill="#F1E6FF"/>
  <circle cx="646" cy="263" r="22" fill="#DCFCE7"/>
  <circle cx="866" cy="263" r="22" fill="#FFF7ED"/>
  <rect x="390" y="398" width="410" height="220" rx="30" fill="#FBF8FF" stroke="#E8DDF7"/>
  <rect x="420" y="430" width="160" height="14" rx="7" fill="#21133F"/>
  <rect x="420" y="468" width="340" height="26" rx="13" fill="white"/>
  <rect x="420" y="508" width="340" height="26" rx="13" fill="white"/>
  <rect x="420" y="548" width="340" height="26" rx="13" fill="white"/>
  <rect x="835" y="398" width="214" height="220" rx="30" fill="#21133F"/>
  <rect x="866" y="430" width="120" height="14" rx="7" fill="white"/>
  <rect x="866" y="466" width="152" height="28" rx="14" fill="#7C3AED"/>
  <rect x="866" y="510" width="132" height="10" rx="5" fill="#A78BFA"/>
  <rect x="866" y="536" width="112" height="10" rx="5" fill="#A78BFA"/>
  <rect x="866" y="562" width="140" height="10" rx="5" fill="#A78BFA"/>
  <path d="M510 620C570 540 650 570 700 484C742 412 818 448 850 408" stroke="#7C3AED" stroke-width="12" stroke-linecap="round"/>
</svg>
